# Blender 5.1.1
# www.blender.org
mtllib dusty_left_wing.mtl
o Object_2.003
v -3.360356 0.206635 -0.077103
v -3.310349 0.238571 -0.115497
v -3.357376 0.257628 -0.076655
v -3.331005 0.107910 -0.064055
v -3.359913 0.208254 -0.049189
v -3.330633 0.326792 -0.062140
v -3.318368 -0.120552 -0.089693
v -2.780208 -0.140597 -0.179239
v -3.310349 0.238571 -0.115497
v 0.000730 0.372475 -0.702747
v -3.301492 0.525030 -0.136081
v -3.356594 0.256067 -0.048295
v -3.310350 0.237651 -0.010335
v -3.318368 -0.120966 -0.042419
v -3.331005 0.107910 -0.064055
v -3.310350 0.237651 -0.010335
v -3.328312 -0.120742 -0.066056
v -3.328312 -0.120742 -0.066056
v -3.321916 -0.414264 -0.075672
v -2.779394 -0.141254 -0.108024
v -0.124164 -0.240471 -0.442335
v -2.780208 -0.140597 -0.179239
v -2.779933 -0.458456 -0.138632
v -0.124161 -0.238980 -0.607495
v -0.124161 -0.238980 -0.607495
v -2.779933 -0.458279 -0.158722
v -2.779933 -0.458279 -0.158722
v -0.001143 -0.673121 -0.572122
v 0.001332 0.708858 -0.676317
v 0.001346 0.791224 -0.552260
v -3.301351 0.607815 -0.059681
v -3.322647 0.524404 -0.060411
v -3.301494 0.523706 0.015259
v -3.330633 0.326792 -0.062140
v -3.322647 0.524404 -0.060411
v -0.000072 -0.007137 -0.389471
v -2.779394 -0.141254 -0.108024
v 0.000534 0.369557 -0.370208
v -3.321823 -0.414437 -0.056004
v -3.321916 -0.414264 -0.075672
v -2.779933 -0.458456 -0.138632
v -2.779933 -0.458279 -0.158722
v -0.124164 -0.240471 -0.442335
v -0.124253 -0.665298 -0.531577
v -0.001144 -0.673285 -0.548842
v -0.124253 -0.665298 -0.531577
v -0.124608 -0.665106 -0.553730
v -0.124608 -0.665106 -0.553730
v -0.001143 -0.673121 -0.572122
v -0.124608 -0.665106 -0.553730
v 0.001077 0.706699 -0.429664
v -2.779394 -0.141374 -0.179246
v -1.203265 -0.201016 -0.306559
v -2.777740 -0.142311 -0.108033
v -1.203011 -0.200058 -0.433565
v -2.779213 -0.458457 -0.138591
v -2.779394 -0.141374 -0.179246
v -2.779271 -0.458280 -0.158722
v -2.779394 -0.141374 -0.179246
v -1.203011 -0.200058 -0.433565
v -1.203011 -0.200058 -0.433565
v -1.203247 -0.581972 -0.372337
v -1.203425 -0.581790 -0.393302
v -0.124886 -0.665296 -0.531638
v -0.124788 -0.239663 -0.607501
v -0.124536 -0.241982 -0.442348
v -0.125413 -0.665104 -0.553730
v -1.202753 -0.581971 -0.372295
v -1.203246 -0.581790 -0.393302
v -0.124788 -0.239663 -0.607501
v -0.124536 -0.241982 -0.442348
v -1.201867 -0.200509 -0.433569
v -1.202599 -0.201199 -0.306561
v -1.202599 -0.201199 -0.306561
v -1.201867 -0.200509 -0.433569
vn 0.7448 0.1851 0.6411
vn 0.1847 0.0693 0.9803
vn 0.8081 -0.2457 0.5353
vn 0.9953 0.0971 -0.0007
vn 0.7840 0.1743 -0.5957
vn 0.9972 -0.0746 -0.0013
vn 0.2320 0.0551 0.9711
vn 0.1592 0.2613 0.9520
vn 0.1848 0.0694 0.9803
vn 0.1478 0.0584 0.9873
vn 0.9953 0.0970 -0.0005
vn 0.1861 -0.2503 0.9501
vn 0.9972 -0.0743 -0.0011
vn 0.7520 -0.2522 -0.6090
vn -0.0975 0.0821 -0.9918
vn -0.0395 0.0706 -0.9967
vn 0.9953 0.0969 -0.0009
vn -0.0972 0.0821 -0.9919
vn 0.9999 0.0119 -0.0009
vn 0.9999 0.0119 -0.0006
vn 0.1995 0.1170 0.9729
vn -0.1166 0.2272 -0.9669
vn 0.0116 0.7413 -0.6711
vn 0.1593 0.2613 0.9520
vn -0.2844 0.2083 -0.9358
vn 0.2000 0.3339 0.9211
vn 0.2001 0.3344 0.9210
vn 0.1245 0.1256 0.9842
vn 0.1246 0.1258 0.9842
vn 0.0324 0.1392 0.9897
vn 0.1458 -0.2976 0.9435
vn 0.1214 -0.9761 0.1805
vn 0.0258 -0.9542 -0.2980
vn 0.9946 -0.1036 -0.0007
vn -0.0968 -0.1498 -0.9840
vn 0.9972 -0.0744 -0.0015
vn 0.9946 -0.1036 -0.0011
vn -0.0650 0.1281 -0.9896
vn -0.1165 0.2270 -0.9669
vn -0.0919 -0.0182 -0.9956
vn -0.0900 0.1042 -0.9905
vn 0.1995 0.1171 0.9729
vn -0.2842 0.2083 -0.9358
vn 0.1246 0.1256 0.9842
vn 0.0115 0.7413 -0.6711
vn 0.8040 0.1500 -0.5754
vn 0.0699 0.2601 -0.9630
vn 0.8040 0.1501 -0.5754
vn 0.3176 0.2147 0.9236
vn 0.3180 0.2145 0.9235
vn 0.0324 0.1391 0.9898
vn 0.3176 0.2148 0.9236
vn -0.0457 -0.4116 -0.9102
vn 0.0715 -0.4898 0.8689
vn -0.1759 -0.1452 -0.9736
vn -0.1721 -0.1253 -0.9771
vn 0.1010 -0.0938 0.9905
vn -0.1494 0.1632 -0.9752
vn 0.0712 -0.4897 0.8690
vn 0.1554 0.1423 0.9776
vn -0.1720 -0.1252 -0.9771
vn 0.0714 -0.4897 0.8690
vn 0.1553 0.1423 0.9776
vn 0.1011 -0.0938 0.9904
vn 0.1010 -0.0940 0.9904
vn -0.2074 0.2645 -0.9418
vn -0.1495 0.1632 -0.9752
vn 0.1448 0.1564 0.9770
vn 0.0482 0.2982 -0.9533
vn 0.2381 -0.0860 0.9674
vn -0.0577 -0.1671 -0.9842
vn 0.1773 0.1725 0.9689
vn 0.0484 0.2982 -0.9533
vn -0.0573 0.2135 -0.9753
vn -0.0578 -0.1668 -0.9843
vn 0.1701 0.1648 0.9716
vn 0.1775 0.1725 0.9689
vn 0.2381 -0.0859 0.9674
vn -0.0579 -0.1670 -0.9843
vn 0.2231 -0.5409 0.8110
vn -0.0006 -0.1591 -0.9873
vn -0.0143 -0.1586 -0.9872
vn 0.2232 -0.5407 0.8110
vt 0.418100 -0.691100
vt 0.415700 -0.694900
vt 0.418300 -0.697800
vt 0.419500 -0.676000
vt 0.420600 -0.690900
vt 0.419900 -0.708400
vt 0.423500 -0.642000
vt 0.501500 -0.635400
vt 0.425100 -0.695000
vt 0.900900 -0.679000
vt 0.426300 -0.736200
vt 0.420700 -0.698000
vt 0.424200 -0.859800
vt 0.420400 -0.828100
vt 0.425500 -0.810900
vt 0.420400 -0.858500
vt 0.418900 -0.642000
vt 0.421200 -0.599700
vt 0.465500 -0.571600
vt 0.786600 -0.572900
vt 0.466500 -0.580100
vt 0.429400 -0.580800
vt 0.883100 -0.592400
vt 0.789000 -0.592600
vt 0.428400 -0.581100
vt 0.501500 -0.591000
vt 0.900900 -0.529100
vt 0.900900 -0.726700
vt 0.900900 -0.747900
vt 0.426100 -0.760000
vt 0.419900 -0.737200
vt 0.426600 -0.773300
vt 0.420300 -0.798300
vt 0.420300 -0.770600
vt 0.900900 -0.872700
vt 0.501500 -0.869900
vt 0.900900 -0.818400
vt 0.422100 -0.897500
vt 0.422000 -0.898700
vt 0.501500 -0.914100
vt 0.501500 -0.915300
vt 0.883100 -0.906800
vt 0.837200 -0.578500
vt 0.900900 -0.970200
vt 0.883100 -0.968600
vt 0.883100 -0.530100
vt 0.838900 -0.578700
vt 0.900900 -0.972700
vt 0.883100 -0.970700
vt 0.900900 -0.769200
vt 0.599800 -0.450300
vt 0.829700 -0.451500
vt 0.598900 -0.460700
vt 0.831300 -0.433000
vt 0.603100 -0.505700
vt 0.585100 -0.462900
vt 0.603200 -0.507100
vt 0.600200 -0.553400
vt 0.831900 -0.564300
vt 0.848100 -0.453300
vt 0.835200 -0.506600
vt 0.835300 -0.508100
vt 0.566800 -0.477600
vt 0.583500 -0.422800
vt 0.559300 -0.419000
vt 0.567100 -0.479500
vt 0.415400 -0.481700
vt 0.415600 -0.483100
vt 0.565400 -0.539600
vt 0.561500 -0.562300
vt 0.413900 -0.536900
vt 0.410800 -0.554400
vt 0.408800 -0.429200
vt 0.392000 -0.434800
s 1
usemtl Object_3
f 1/1/1 2/2/2 3/3/3
f 4/4/4 2/2/2 1/1/1
f 5/5/5 4/4/4 1/1/1
f 3/3/3 5/5/5 1/1/1
f 2/2/2 6/6/6 3/3/3
f 7/7/7 8/8/8 9/9/9
f 9/9/9 8/8/8 10/10/10
f 4/4/11 7/7/7 9/9/9
f 9/9/9 11/11/12 6/6/13
f 10/10/10 11/11/12 9/9/9
f 3/3/3 6/6/6 12/12/14
f 12/12/14 5/5/5 3/3/3
f 13/9/15 4/4/4 5/5/5
f 12/12/14 13/9/15 5/5/5
f 14/13/16 15/14/17 16/15/18
f 17/16/19 15/14/17 14/13/16
f 18/17/20 7/7/7 4/4/11
f 7/7/7 19/18/21 8/8/8
f 18/17/20 19/18/21 7/7/7
f 20/19/22 21/20/23 22/21/24
f 22/21/24 23/22/25 20/19/22
f 8/8/8 24/23/26 10/10/10
f 22/21/24 21/20/23 25/24/27
f 26/25/28 23/22/25 22/21/24
f 19/18/21 27/26/29 8/8/8
f 10/10/10 24/23/26 28/27/30
f 10/10/10 29/28/31 11/11/12
f 29/28/31 30/29/32 11/11/12
f 11/11/12 30/29/32 31/30/33
f 11/11/12 31/30/33 32/31/34
f 11/11/12 32/31/34 6/6/13
f 6/6/6 13/9/15 12/12/14
f 33/32/35 16/15/18 34/33/36
f 35/34/37 33/32/35 34/33/36
f 16/15/18 36/35/38 37/36/39
f 38/37/40 36/35/38 16/15/18
f 33/32/35 38/37/40 16/15/18
f 16/15/18 37/36/39 14/13/16
f 39/38/41 17/16/19 14/13/16
f 14/13/16 37/36/39 39/38/41
f 40/39/42 17/16/19 39/38/41
f 41/40/43 40/39/42 39/38/41
f 42/41/44 40/39/42 41/40/43
f 37/36/39 41/40/43 39/38/41
f 36/35/38 43/42/45 37/36/39
f 44/43/46 25/24/27 21/20/23
f 43/42/45 36/35/38 45/44/47
f 43/42/45 45/44/47 46/45/48
f 24/23/26 47/46/49 28/27/30
f 48/47/50 25/24/27 44/43/46
f 45/44/47 49/48/51 50/49/52
f 30/29/32 51/50/53 31/30/33
f 31/30/33 51/50/53 33/32/35
f 31/30/33 33/32/35 35/34/37
f 51/50/53 38/37/40 33/32/35
f 46/45/48 45/44/47 50/49/52
f 52/51/54 53/52/55 54/53/56
f 55/54/57 53/52/55 52/51/54
f 56/55/58 57/56/59 58/57/60
f 54/53/61 57/56/59 56/55/58
f 59/58/62 58/57/63 60/59/64
f 61/60/65 62/61/66 53/52/55
f 56/55/67 54/53/56 53/52/55
f 62/61/66 56/55/67 53/52/55
f 63/62/68 62/61/66 61/60/65
f 60/59/64 58/57/63 63/62/68
f 58/57/63 56/55/67 62/61/66
f 63/62/68 58/57/63 62/61/66
f 64/63/69 65/64/70 66/65/71
f 67/66/72 65/64/70 64/63/69
f 64/63/73 68/67/74 66/65/75
f 69/68/76 68/67/74 64/63/73
f 67/66/77 69/68/76 64/63/73
f 70/69/78 71/70/79 72/71/80
f 72/71/80 69/68/76 70/69/78
f 70/69/78 69/68/76 67/66/77
f 72/71/80 71/70/79 73/72/81
f 68/67/74 74/73/82 66/65/75
f 68/67/74 75/74/83 74/73/82
f 69/68/76 75/74/83 68/67/74
